# xmcd
#
# Track frame offsets: 
#        150
#        11440
#        26233
#        39826
#        52516
#        61662
#        72167
#        85005
#        95973
#        107519
#        120079
#        132497
#        144627
#        157085
#        169491
#        184623
#        197736
#
# Disc length: 2907 seconds
#
# Revision: 1
# Processed by: cddbd v1.5.2PL0 Copyright (c) Steve Scherf et al.
# Submitted via: ExactAudioCopy v0.99pb5
#
DISCID=dc0b5911
DTITLE=B B King - The essential collection (disk 1)
DYEAR=2007
DGENRE=Blues
TTITLE0=B.B. Blues
TTITLE1=B.B. Boogie
TTITLE2=Blind Love
TTITLE3=Boogie Woogie Woman
TTITLE4=Don't You Want A Man Like Me
TTITLE5=Fine Looking Woman
TTITLE6=Got The Blues
TTITLE7=Gotta Find My Baby
TTITLE8=Hard Working Woman
TTITLE9=Highway Bound
TTITLE10=I Gotta Find My Baby
TTITLE11=Miss Martha King
TTITLE12=Mistreated Woman
TTITLE13=My Baby Is Gone
TTITLE14=My Own Fault Darlin'
TTITLE15=Neighborhood Affair
TTITLE16=Please Hurry Home
EXTD=
EXTT0=
EXTT1=
EXTT2=
EXTT3=
EXTT4=
EXTT5=
EXTT6=
EXTT7=
EXTT8=
EXTT9=
EXTT10=
EXTT11=
EXTT12=
EXTT13=
EXTT14=
EXTT15=
EXTT16=
PLAYORDER=
